<?xml version="1.0" standalone="no"?>
<!DOCTYPE svg PUBLIC "-//W3C//DTD SVG 20010904//EN"
 "http://www.w3.org/TR/2001/REC-SVG-20010904/DTD/svg10.dtd">
<svg version="1.0" xmlns="http://www.w3.org/2000/svg"
 width="512.000000pt" height="512.000000pt" viewBox="0 0 512.000000 512.000000"
 preserveAspectRatio="xMidYMid meet">
<metadata>
Created by potrace 1.14, written by Peter Selinger 2001-2017
</metadata>
<g transform="translate(0.000000,512.000000) scale(0.100000,-0.100000)"
fill="#000000" stroke="none">
<path d="M4119 5082 c-14 -26 -59 -75 -146 -156 -38 -35 -50 -34 -29 4 4 8
-10 -4 -31 -27 -22 -24 -45 -43 -51 -43 -6 0 -20 -12 -33 -27 l-21 -28 6 25
c7 24 7 24 -9 5 -9 -11 -18 -30 -22 -42 -3 -13 -9 -23 -14 -23 -5 0 -39 -30
-75 -66 -37 -37 -72 -63 -80 -60 -8 3 -11 0 -8 -9 3 -7 -3 -16 -15 -20 -12 -3
-26 -15 -31 -26 -6 -10 -16 -19 -22 -19 -6 0 -5 7 3 18 13 15 12 16 -3 3 -10
-7 -15 -17 -12 -22 3 -5 1 -9 -3 -9 -12 0 -83 -65 -83 -76 0 -15 -159 -164
-174 -164 -9 0 -16 -4 -16 -9 0 -6 -30 -35 -67 -66 -38 -31 -84 -71 -103 -88
-19 -18 -28 -23 -20 -12 8 11 -3 5 -25 -14 -22 -19 -40 -39 -40 -44 0 -14 -88
-87 -98 -80 -5 3 -3 9 4 14 10 6 10 9 2 9 -7 0 -17 -8 -22 -17 -6 -10 -11 -14
-11 -9 0 6 -14 -3 -32 -20 -17 -16 -27 -22 -23 -14 8 13 6 13 -11 1 -33 -25
-84 -82 -84 -94 0 -12 -59 -52 -73 -49 -4 1 -6 -3 -5 -9 2 -8 -40 -11 -144
-10 l-147 2 -3 -35 -3 -35 -150 112 c-82 61 -260 192 -395 290 -135 98 -254
185 -265 193 -137 101 -449 318 -480 333 -40 20 -143 51 -179 54 -41 4 -24
-20 29 -42 31 -13 73 -37 94 -55 21 -17 49 -40 63 -51 13 -11 19 -16 12 -12
-7 4 -15 4 -18 -1 -3 -5 8 -15 24 -22 17 -7 30 -16 30 -21 0 -14 -33 -10 -54
6 -23 17 -42 9 -25 -11 10 -12 8 -13 -7 -8 -13 4 -11 1 6 -12 14 -10 29 -18
34 -16 5 2 6 -9 3 -24 -5 -31 10 -84 25 -84 5 0 7 -4 3 -9 -3 -5 4 -12 15 -16
11 -3 20 -10 20 -14 0 -5 19 -21 42 -36 24 -16 66 -52 94 -81 29 -29 55 -50
58 -47 3 3 8 -2 12 -11 3 -9 12 -16 18 -16 17 0 59 -47 52 -58 -5 -9 43 -36
51 -28 2 2 -5 7 -16 11 -12 3 -21 11 -21 16 0 5 11 2 25 -7 23 -15 29 -26 26
-46 0 -4 6 -5 14 -2 10 4 15 0 15 -12 0 -16 2 -17 10 -4 8 13 10 12 10 -4 0
-11 3 -16 7 -13 9 10 34 -14 26 -26 -3 -6 -1 -7 5 -3 7 4 12 2 12 -4 0 -6 4
-9 9 -6 13 8 86 -54 83 -70 -2 -8 1 -13 6 -12 5 2 18 -6 28 -17 11 -12 15 -15
10 -8 -5 8 -4 13 2 13 5 0 13 -7 16 -16 3 -8 9 -13 13 -11 5 3 14 -2 22 -11
15 -15 8 -15 -54 1 -5 1 -31 17 -57 35 -55 38 -65 40 -62 10 4 -34 4 -34 12
-21 6 10 17 7 42 -12 37 -27 29 -34 -10 -9 -20 12 -19 11 4 -9 l28 -24 1 -463
1 -463 -27 -21 c-67 -53 -86 -66 -97 -66 -9 0 -9 4 1 18 7 9 1 6 -13 -7 -15
-13 -26 -28 -25 -34 1 -7 -28 -12 -78 -13 -44 -1 -85 -2 -90 -3 -6 0 -10 -36
-10 -87 l0 -85 -59 -57 c-33 -31 -73 -67 -90 -80 l-30 -22 31 -12 32 -12 -72
-66 -71 -67 72 -47 c40 -26 72 -51 72 -56 0 -9 39 -26 52 -22 5 1 7 -2 5 -8
-1 -5 12 -20 28 -34 l30 -24 0 -174 0 -173 121 -3 122 -3 -2 106 c-1 102 0
107 23 122 22 14 24 14 17 -2 -4 -11 0 -22 9 -29 9 -6 27 -49 41 -96 13 -46
28 -88 32 -92 5 -5 60 -9 124 -9 98 0 118 -3 135 -18 29 -27 79 -51 88 -43 5
4 5 2 2 -5 -4 -6 -1 -14 5 -16 9 -4 9 -6 -2 -7 -8 -1 -23 -3 -32 -5 -10 -2
-20 1 -24 6 -3 5 -10 6 -16 2 -14 -8 -158 -10 -152 -2 1 3 -3 6 -11 6 -8 0
-12 -5 -8 -10 3 -5 -3 -4 -14 2 -14 7 -23 7 -31 -1 -8 -8 -12 -8 -12 -2 0 6
-7 11 -15 11 -8 0 -12 -4 -9 -9 3 -4 -2 -8 -10 -8 -9 0 -16 6 -16 13 0 9 -3 8
-9 -2 -7 -11 -9 -11 -14 0 -4 9 -8 10 -14 4 -10 -12 -63 -14 -63 -3 0 4 -5 8
-11 8 -5 0 -8 -4 -5 -8 2 -4 -4 -8 -15 -8 -10 0 -19 3 -19 6 0 7 -318 3 -336
-4 -8 -3 -14 -2 -14 3 0 4 -6 8 -13 8 -10 0 -13 -54 -13 -248 l-1 -248 61 3
c33 1 69 -1 80 -7 10 -5 16 -5 13 0 -6 10 363 11 379 1 6 -4 14 -4 18 -1 8 8
386 10 386 2 0 -3 -11 -16 -24 -28 -18 -17 -25 -19 -29 -9 -4 10 -6 9 -6 -2
-1 -17 -29 -45 -76 -75 -88 -56 -116 -77 -122 -90 -3 -8 -9 -12 -14 -9 -5 3
-9 0 -9 -5 0 -6 -4 -11 -10 -11 -10 0 -29 -15 -76 -57 -13 -12 -41 -34 -61
-50 -53 -39 -84 -73 -78 -84 6 -9 -21 -38 -69 -73 -14 -10 -33 -24 -43 -31
-16 -12 -16 -14 0 -38 22 -34 22 -34 -12 -42 -29 -6 -71 -66 -50 -73 5 -2 7
-8 4 -12 -3 -5 4 -14 16 -21 22 -11 22 -11 -7 -36 -52 -44 -144 -133 -138
-133 3 0 -11 -16 -32 -35 -20 -19 -38 -35 -40 -35 -1 0 -20 -15 -41 -34 -69
-61 -98 -89 -83 -78 8 5 24 6 35 2 19 -7 19 -7 -1 -18 -12 -6 -25 -8 -29 -4
-5 4 -5 1 -1 -5 4 -7 9 -13 12 -13 11 0 93 83 89 90 -2 4 8 13 23 21 15 7 42
26 61 42 18 15 35 26 37 24 3 -2 5 -39 5 -81 1 -77 7 -90 31 -58 7 9 25 24 40
32 28 16 119 94 198 170 26 25 60 56 76 69 16 13 56 49 89 80 105 97 278 256
330 302 52 46 62 56 141 129 27 25 94 86 149 135 55 50 107 97 115 106 36 38
64 47 141 44 l76 -2 174 -134 c221 -170 207 -159 245 -194 56 -52 72 -64 78
-57 4 3 19 -6 34 -19 15 -14 41 -34 57 -44 34 -21 243 -183 290 -224 17 -14
44 -35 60 -45 17 -10 71 -50 121 -88 l91 -69 69 12 c112 18 118 19 149 28 l30
8 -27 13 c-16 7 -28 17 -28 21 0 5 -12 20 -27 35 -23 22 -18 20 22 -8 184
-128 241 -165 186 -120 -25 20 -16 36 16 26 15 -5 15 -4 -2 7 -11 7 -29 21
-39 31 -11 10 -30 18 -42 18 -12 0 -31 10 -41 23 -10 12 -42 40 -70 62 -29 21
-53 42 -53 46 0 4 -12 9 -27 12 l-28 5 30 -24 c17 -13 25 -24 18 -24 -6 0 -15
5 -18 11 -4 6 -14 8 -22 5 -8 -3 -12 -2 -9 3 3 5 -1 12 -10 15 -10 4 -13 2 -8
-7 4 -6 -6 2 -22 18 -16 17 -27 34 -26 38 1 5 -2 6 -8 2 -5 -3 -10 -1 -10 5 0
6 -4 8 -10 5 -5 -3 -10 0 -10 8 0 15 -26 30 -39 22 -4 -2 -6 6 -5 18 1 12 3
22 4 22 6 0 9 47 4 77 -5 35 -10 40 -82 74 -92 44 -88 40 -73 57 14 18 4 47
-16 47 -8 0 -21 7 -30 15 -12 12 -18 13 -29 4 -12 -9 -13 -9 -9 3 4 9 -8 21
-32 34 -99 52 -153 87 -153 100 0 8 -12 19 -27 25 -15 6 -30 13 -33 17 -3 4
-40 25 -82 47 -43 22 -78 42 -78 45 0 3 174 5 388 5 213 0 404 2 424 4 l37 3
0 87 c-1 47 2 95 7 105 5 12 4 17 -3 13 -5 -3 -10 0 -10 8 0 8 3 12 7 10 8 -5
3 103 -6 117 -4 7 -3 8 4 4 15 -9 15 -1 2 24 -6 10 -6 21 -2 24 5 3 7 18 4 35
-3 20 -10 30 -25 33 -12 2 -221 3 -464 3 -244 0 -443 3 -443 6 0 7 148 143
161 147 5 2 12 -10 15 -26 6 -30 7 -31 83 -34 42 -2 121 -1 175 2 97 5 99 6
101 30 2 14 6 57 10 95 4 39 9 81 11 95 1 14 5 48 8 75 15 131 16 136 48 163
16 14 35 31 42 37 27 26 103 85 107 82 2 -1 3 0 2 2 -1 2 17 19 41 37 24 18
57 47 74 64 l32 31 -28 16 -28 16 39 36 38 36 -113 84 c-62 47 -129 96 -148
110 -19 14 -64 45 -100 68 -36 23 -76 52 -90 65 -14 13 -59 45 -100 71 -41 26
-93 63 -115 83 l-40 35 0 152 0 152 -161 3 -162 2 3 -35 c2 -34 -9 -48 -17
-22 -3 11 -1 247 4 274 1 7 5 10 9 8 3 -3 12 2 19 10 22 27 27 16 27 -66 1
-44 4 -84 8 -87 4 -4 64 -7 135 -7 147 -1 138 -7 134 93 -3 93 -22 158 -59
206 -30 40 -32 44 -16 57 31 26 109 79 115 79 4 0 17 9 29 20 12 12 50 39 85
62 54 35 60 43 50 57 -11 14 -11 14 2 4 13 -10 27 -3 80 38 36 27 66 56 68 63
4 18 -36 15 -48 -4 -5 -8 -10 -11 -10 -5 0 5 -7 -1 -16 -13 -8 -12 -20 -22
-25 -22 -6 0 46 56 115 124 69 68 126 129 126 136 0 10 -4 9 -17 -1 -15 -12
-16 -12 -10 4 5 14 3 16 -11 8 -9 -5 -27 -20 -38 -33 -26 -28 -150 -141 -259
-234 -44 -38 -85 -74 -91 -80 -6 -5 -30 -25 -53 -44 -22 -19 -41 -41 -41 -49
0 -8 -3 -11 -6 -8 -4 3 -19 -7 -34 -23 -16 -17 -31 -30 -35 -30 -4 0 -15 -8
-24 -18 -13 -16 -20 -17 -43 -7 l-28 11 42 39 c23 22 75 75 116 118 41 42 79
77 84 77 17 0 87 63 81 73 -4 6 -1 7 7 2 7 -4 15 -4 19 1 3 5 25 22 48 38 24
16 54 40 68 54 28 27 35 52 8 31 -9 -8 -18 -12 -21 -10 -2 2 -17 -8 -32 -23
-16 -14 -32 -26 -36 -26 -9 0 91 97 216 210 46 41 118 108 160 147 42 40 95
86 118 103 39 28 42 32 36 68 -6 38 -27 79 -51 97 -10 8 -4 18 27 49 42 41
126 170 136 210 8 34 -10 40 -27 8z m-656 -927 c-3 -9 -8 -14 -10 -11 -3 3 -2
9 2 15 9 16 15 13 8 -4z m182 -55 c3 -5 1 -10 -4 -10 -6 0 -11 5 -11 10 0 6 2
10 4 10 3 0 8 -4 11 -10z m-1662 -494 c9 -10 15 -40 16 -90 2 -65 0 -76 -18
-85 -11 -6 -24 -11 -30 -11 -16 0 -15 187 2 193 6 3 13 6 14 6 1 1 8 -5 16
-13z m-9 -366 c37 -14 35 -58 -4 -95 l-30 -29 0 67 c0 37 2 67 4 67 3 0 16 -4
30 -10z m1051 -94 c17 -13 27 -27 23 -31 -8 -8 -68 32 -68 46 0 15 13 10 45
-15z m-353 -75 c22 -20 33 -40 35 -65 4 -49 40 -121 75 -152 61 -50 108 -67
185 -67 46 0 76 -4 83 -12 7 -8 5 -45 -4 -116 -16 -113 -22 -170 -32 -269 -4
-36 -8 -72 -10 -80 -1 -8 -3 -37 -4 -65 l-2 -50 -9 50 c-9 57 -22 233 -23 317
-1 32 -3 58 -6 58 -3 0 -6 25 -7 57 -1 31 -7 59 -12 63 -8 5 -231 6 -264 1 -4
0 -6 -18 -3 -38 3 -21 7 -60 11 -88 3 -27 7 -66 10 -85 5 -32 7 -53 20 -175 6
-58 15 -135 20 -175 7 -52 12 -96 30 -255 9 -82 15 -131 21 -167 4 -34 1 -42
-36 -76 -22 -22 -40 -36 -40 -34 0 3 -6 -2 -12 -11 -10 -13 -35 -17 -121 -19
-59 -2 -107 0 -107 4 0 4 -7 5 -15 1 -9 -3 -23 1 -33 9 -9 8 -24 14 -32 13
-17 -1 -40 19 -40 34 0 6 10 11 23 11 44 0 132 32 170 62 51 40 88 108 95 171
8 72 7 563 -1 614 -22 143 -152 235 -320 228 -78 -4 -116 -14 -167 -43 -51
-29 -72 -51 -100 -104 -31 -57 -36 -124 -35 -420 l1 -277 -36 26 c-19 15 -37
30 -40 34 -5 6 -3 678 1 706 1 7 6 10 11 7 4 -3 26 13 49 34 29 28 37 42 27
46 -7 3 -2 3 11 0 19 -5 23 -3 18 10 -3 8 -1 18 5 22 7 4 8 3 4 -4 -4 -7 -2
-12 3 -12 6 0 11 4 11 8 0 4 14 9 30 10 60 5 109 32 135 77 14 23 25 48 25 56
0 8 18 33 40 54 36 35 40 37 40 17 0 -13 -6 -22 -16 -22 -9 0 -12 -5 -8 -12 4
-7 3 -8 -4 -4 -8 4 -12 0 -12 -11 0 -15 -2 -16 -10 -3 -5 8 -10 10 -10 4 0 -6
6 -17 14 -23 11 -9 17 -8 30 4 14 14 15 8 18 -62 l3 -78 135 0 135 0 0 147 c0
82 4 148 8 148 4 0 22 -13 39 -29z m-322 -14 c0 -14 -20 -37 -32 -37 -12 0
-10 24 4 38 16 16 28 15 28 -1z m-55 -26 c-3 -5 -1 -12 5 -16 14 -9 2 -25 -18
-25 -13 0 -14 2 -4 9 7 4 12 12 11 17 -2 14 0 24 7 24 3 0 3 -4 -1 -9z m1208
-226 c15 -15 27 -33 27 -39 0 -6 -5 -3 -11 7 -5 9 -20 17 -32 17 -12 0 -38 14
-57 30 -21 18 -42 29 -53 26 -14 -3 -16 -2 -7 9 8 10 7 15 -8 19 -26 9 -55 42
-48 55 7 11 144 -80 189 -124z m-1973 -35 c0 -5 -5 -10 -11 -10 -5 0 -7 5 -4
10 3 6 8 10 11 10 2 0 4 -4 4 -10z m2335 -226 c14 -9 25 -20 25 -25 0 -16 -22
-9 -44 14 -12 12 -31 28 -42 34 -16 11 -15 11 8 3 16 -5 39 -17 53 -26z
m-1511 10 c12 -31 7 -645 -5 -660 -15 -19 -35 -18 -43 2 -8 20 -8 638 0 658 8
21 40 21 48 0z m1068 -48 c4 -6 6 -29 3 -51 -20 -203 -23 -227 -30 -233 -3 -3
-6 15 -6 39 -1 24 -3 53 -4 64 -1 11 -5 62 -9 113 l-7 94 23 -7 c13 -4 26 -13
30 -19z m-1727 -96 c1 -22 -2 -40 -6 -40 -11 0 -22 66 -14 80 11 18 19 3 20
-40z m-482 -152 c12 -7 24 -15 27 -18 3 -3 22 -18 43 -34 21 -15 36 -31 32
-34 -3 -4 -9 -2 -13 4 -11 16 -99 74 -104 68 -3 -3 -8 2 -11 11 -8 18 -3 19
26 3z m1997 -158 c0 -16 -5 -32 -10 -35 -7 -4 -10 8 -9 34 3 45 19 46 19 1z
m-1617 -146 c-2 -7 -11 -10 -19 -7 -17 6 -11 20 10 20 8 0 12 -6 9 -13z m2628
-1661 c13 -15 12 -15 -8 -4 -24 12 -29 21 -14 21 5 0 15 -7 22 -17z m-3060
-216 c-10 -9 -11 -8 -5 6 3 10 9 15 12 12 3 -3 0 -11 -7 -18z"/>
<path d="M813 4308 c-8 -9 -9 -19 -3 -28 6 -8 10 -11 10 -7 0 5 7 1 16 -8 9
-9 23 -14 31 -11 7 3 16 -1 19 -9 5 -11 11 -12 24 -5 27 15 40 12 40 -7 0 -15
-2 -16 -10 -3 -5 8 -10 10 -10 5 0 -18 22 -34 38 -28 11 5 13 3 7 -8 -7 -11
-5 -11 10 1 17 14 18 13 11 -5 -4 -11 -4 -17 -1 -13 4 3 19 2 35 -2 27 -8 28
-7 17 11 -6 10 -17 19 -24 19 -7 0 -13 4 -13 9 0 5 -7 12 -16 15 -10 4 -13 2
-8 -7 5 -8 2 -8 -9 2 -9 7 -15 16 -13 20 7 10 -76 60 -111 67 -19 4 -33 1 -40
-8z"/>
<path d="M1234 4221 c7 -11 46 -35 46 -28 0 3 -12 12 -26 22 -15 9 -23 12 -20
6z"/>
<path d="M1290 4155 c0 -2 14 -13 30 -25 17 -12 30 -18 30 -13 0 4 -14 16 -30
25 -17 9 -30 15 -30 13z"/>
<path d="M1360 4111 c0 -10 19 -25 25 -20 1 2 -3 10 -11 17 -8 7 -14 8 -14 3z"/>
<path d="M1420 3981 c14 -11 40 -28 59 -38 19 -10 43 -26 53 -35 19 -19 38
-24 38 -9 0 5 -7 14 -15 21 -8 7 -15 10 -15 6 0 -5 -24 7 -110 56 l-35 20 25
-21z"/>
<path d="M1560 3870 c0 -5 5 -10 10 -10 6 0 10 5 10 10 0 6 -4 10 -10 10 -5 0
-10 -4 -10 -10z"/>
<path d="M1280 2555 c-7 -9 -8 -15 -2 -15 5 0 12 7 16 15 3 8 4 15 2 15 -2 0
-9 -7 -16 -15z"/>
<path d="M4270 260 c-12 -7 -10 -9 7 -7 12 0 19 5 17 9 -6 10 -6 10 -24 -2z"/>
<path d="M1090 20 c0 -5 5 -10 11 -10 5 0 7 5 4 10 -3 6 -8 10 -11 10 -2 0 -4
-4 -4 -10z"/>
</g>
</svg>
